SplineFontDB: 3.2
FontName: Khaanaa-green
FullName: Khaanaa Green
FamilyName: Khaanaa
Weight: Regular
Copyright: Copyright 2024 The Khaanaa Font Authors
UComments: "2024-7-22: Created with FontForge (http://fontforge.org)"
Version: 0.001
ItalicAngle: 0
UnderlinePosition: -102
UnderlineWidth: 51
Ascent: 819
Descent: 205
InvalidEm: 0
UFOAscent: 819
UFODescent: -205
LayerCount: 2
Layer: 0 0 "Back" 1
Layer: 1 1 "public.default" 0 "glyphs"
StyleMap: 0x0040
FSType: 0
OS2Version: 0
OS2_WeightWidthSlopeOnly: 0
OS2_UseTypoMetrics: 0
CreationTime: 1732813800
ModificationTime: 1733028375
PfmFamily: 16
TTFWeight: 400
TTFWidth: 5
LineGap: 0
VLineGap: 0
OS2TypoAscent: 839
OS2TypoAOffset: 0
OS2TypoDescent: -210
OS2TypoDOffset: 0
OS2TypoLinegap: 0
OS2WinAscent: 839
OS2WinAOffset: 0
OS2WinDescent: 210
OS2WinDOffset: 0
HheadAscent: 839
HheadAOffset: 0
HheadDescent: -210
HheadDOffset: 0
OS2FamilyClass: 1283
OS2Vendor: 'anir'
MarkAttachClasses: 1
DEI: 91125
LangName: 1033 "" "" "" "" "" "Version 0.001" "" "" "" "" "" "" "" "Copyright 2024, The Khaanaa Font Authors+AAoA-This Font Software is licensed under the SIL Open Font License, Version 1.1.+AAoA-This license is available with a FAQ at:https://openfontlicense.org" "https://openfontlicense.org"
Encoding: Custom
UnicodeInterp: none
NameList: AGL For New Fonts
DisplaySize: -128
AntiAlias: 1
FitToEm: 0
WinInfo: 90 10 4
BeginPrivate: 0
EndPrivate
GridOrder2: 1
Grid
-512 296.96 m 1,0,-1
 1536 296.96 l 1025
-512 581.632 m 1,2,-1
 1536 581.632 l 1025
EndSplineSet
BeginChars: 65537 96

StartChar: A
Encoding: 65 65 0
GlifName: A_
Width: 752
VWidth: 0
GlyphClass: 2
Flags: W
LayerCount: 2
Fore
SplineSet
550 0 m 257,0,-1
 478 46 l 257,1,-1
 478 45 l 257,2,-1
 278 45 l 257,3,-1
 202 0 l 257,4,-1
 50 0 l 257,5,-1
 306 154 l 257,6,-1
 458 154 l 257,7,-1
 702 0 l 257,8,-1
 550 0 l 257,0,-1
434 73 m 257,9,-1
 380 107 l 257,10,-1
 324 73 l 257,11,-1
 434 73 l 257,9,-1
EndSplineSet
EndChar

StartChar: exclam
Encoding: 33 33 1
GlifName: exclam
Width: 252
VWidth: 0
GlyphClass: 2
Flags: W
LayerCount: 2
Fore
SplineSet
69 52 m 257,0,-1
 106 154 l 257,1,-1
 258 154 l 257,2,-1
 221 52 l 257,3,-1
 69 52 l 257,0,-1
50 -0 m 257,4,-1
 60 28 l 257,5,-1
 212 28 l 257,6,-1
 202 -0 l 257,7,-1
 50 -0 l 257,4,-1
EndSplineSet
EndChar

StartChar: quotedbl
Encoding: 34 34 2
GlifName: quotedbl
Width: 452
VWidth: 0
GlyphClass: 2
Flags: W
LayerCount: 2
Fore
SplineSet
289 106 m 261,0,-1
 307 158 l 257,1,-1
 459 158 l 257,2,-1
 441 106 l 257,3,-1
 289 106 l 261,0,-1
89 106 m 257,4,-1
 107 158 l 257,5,-1
 259 158 l 257,6,-1
 241 106 l 257,7,-1
 89 106 l 257,4,-1
EndSplineSet
EndChar

StartChar: quotesingle
Encoding: 39 39 3
GlifName: quotesingle
Width: 252
VWidth: 0
GlyphClass: 2
Flags: W
LayerCount: 2
Fore
SplineSet
89 106 m 261,0,-1
 107 158 l 257,1,-1
 259 158 l 257,2,-1
 241 106 l 257,3,-1
 89 106 l 261,0,-1
EndSplineSet
EndChar

StartChar: namaste
Encoding: 65536 -1 4
Width: 1024
Flags: W
LayerCount: 2
Fore
SplineSet
828 57.7854863834 m 25,0,-1
 657 -100 l 25,1,-1
 684 -142 l 25,2,-1
 870 29 l 25,3,-1
 828 57.7854863834 l 25,0,-1
349.321041904 -118 m 25,4,-1
 159 27.1165309141 l 25,5,-1
 135 0 l 25,6,-1
 315 -166 l 25,7,-1
 349.321041904 -118 l 25,4,-1
EndSplineSet
EndChar

StartChar: numbersign
Encoding: 35 35 6
Width: 644
VWidth: 0
Flags: W
LayerCount: 2
Fore
SplineSet
199.373046875 138.400390625 m 1,0,-1
 351.373046875 138.400390625 l 1,1,-1
 332.904296875 123.599609375 l 1,2,-1
 480.904296875 123.599609375 l 1,3,-1
 499.373046875 138.400390625 l 1,4,-1
 651.373046875 138.400390625 l 1,5,-1
 632.904296875 123.599609375 l 1,6,-1
 643.986328125 123.599609375 l 1,7,-1
 632.921875 93.2001953125 l 1,8,-1
 594.965820312 93.2001953125 l 1,9,-1
 570.506835938 73.599609375 l 1,10,-1
 625.788085938 73.599609375 l 1,11,-1
 614.723632812 43.2001953125 l 1,12,-1
 532.568359375 43.2001953125 l 1,13,-1
 515.846679688 29.7998046875 l 1,14,-1
 363.846679688 29.7998046875 l 1,15,-1
 380.568359375 43.2001953125 l 1,16,-1
 232.568359375 43.2001953125 l 1,17,-1
 215.846679688 29.7998046875 l 1,18,-1
 63.8466796875 29.7998046875 l 1,19,-1
 80.568359375 43.2001953125 l 1,20,-1
 70.7236328125 43.2001953125 l 1,21,-1
 81.7880859375 73.599609375 l 1,22,-1
 118.506835938 73.599609375 l 1,23,-1
 142.965820312 93.2001953125 l 1,24,-1
 88.921875 93.2001953125 l 1,25,-1
 99.986328125 123.599609375 l 1,26,-1
 180.904296875 123.599609375 l 1,27,-1
 199.373046875 138.400390625 l 1,0,-1
442.965820312 93.2001953125 m 1,28,-1
 294.965820312 93.2001953125 l 1,29,-1
 270.506835938 73.599609375 l 1,30,-1
 418.506835938 73.599609375 l 1,31,-1
 442.965820312 93.2001953125 l 1,28,-1
EndSplineSet
EndChar

StartChar: dollar
Encoding: 36 36 7
Width: 512
VWidth: 0
Flags: W
LayerCount: 2
Fore
SplineSet
64.1494140625 11.400390625 m 1,0,-1
 148.248046875 36.400390625 l 1,1,2
 155.811523438 35.2001953125 155.811523438 35.2001953125 169.15625 33.400390625 c 0,3,4
 205.5546875 29 205.5546875 29 249.283203125 31 c 0,5,6
 257.284179688 31.3662109375 257.284179688 31.3662109375 264.615234375 31.9130859375 c 1,7,-1
 275.538085938 61.921875 l 1,8,9
 265.916992188 62.6376953125 265.916992188 62.6376953125 254.9296875 63 c 0,10,11
 207.895507812 68.400390625 207.895507812 68.400390625 174.297851562 75 c 128,-1,12
 140.700195312 81.599609375 140.700195312 81.599609375 122.684570312 89.7998046875 c 128,-1,13
 104.668945312 98 104.668945312 98 111.236328125 107.799804688 c 128,-1,14
 117.802734375 117.599609375 117.802734375 117.599609375 152.515625 127.799804688 c 0,15,16
 209.927734375 144.649414062 209.927734375 144.649414062 308.178710938 151.603515625 c 1,17,-1
 327.977539062 206 l 1,18,-1
 406.977539062 206 l 1,19,-1
 388.377929688 154.897460938 l 1,20,21
 459.299804688 155.3125 459.299804688 155.3125 510.920898438 145.400390625 c 0,22,23
 513.703125 144.799804688 513.703125 144.799804688 520.875 143.900390625 c 128,-1,24
 528.047851562 143 528.047851562 143 530.829101562 142.400390625 c 1,25,-1
 446.73046875 117.400390625 l 1,26,27
 435.458007812 119.400390625 435.458007812 119.400390625 425.822265625 120.400390625 c 0,28,29
 402.696289062 123.063476562 402.696289062 123.063476562 376.838867188 123.193359375 c 1,30,-1
 361.157226562 80.109375 l 1,31,32
 388.931640625 76.626953125 388.931640625 76.626953125 409.606445312 73.099609375 c 0,33,34
 440.676757812 67.7998046875 440.676757812 67.7998046875 462.62890625 60.7998046875 c 128,-1,35
 484.58203125 53.7998046875 484.58203125 53.7998046875 479.87890625 45 c 128,-1,36
 475.17578125 36.2001953125 475.17578125 36.2001953125 441.462890625 26 c 0,37,38
 402.16796875 14.2001953125 402.16796875 14.2001953125 334.866210938 6.5 c 0,39,40
 334.604492188 6.4697265625 334.604492188 6.4697265625 334.34375 6.4404296875 c 2,41,-1
 318.751953125 -36.400390625 l 1,42,-1
 239.751953125 -36.400390625 l 1,43,-1
 252.974609375 -0.0693359375 l 1,44,45
 226.942382812 -1.2607421875 226.942382812 -1.2607421875 201.026367188 -1.2998046875 c 0,46,47
 134.490234375 -1.400390625 134.490234375 -1.400390625 84.0576171875 8.400390625 c 0,48,49
 81.275390625 9 81.275390625 9 74.103515625 9.900390625 c 128,-1,50
 66.9306640625 10.7998046875 66.9306640625 10.7998046875 64.1494140625 11.400390625 c 1,0,-1
295.641601562 117.157226562 m 1,51,52
 285.953125 115.344726562 285.953125 115.344726562 278.12890625 113 c 0,53,54
 250.14453125 104.799804688 250.14453125 104.799804688 267.077148438 95 c 0,55,56
 273.76953125 91.126953125 273.76953125 91.126953125 285.223632812 88.5341796875 c 1,57,-1
 295.641601562 117.157226562 l 1,51,52
EndSplineSet
EndChar

StartChar: percent
Encoding: 37 37 8
Width: 691
VWidth: 0
Flags: W
LayerCount: 2
Fore
SplineSet
239 97 m 261,0,-1
 237 97 l 257,1,-1
 230 97 l 257,2,3
 179 98 179 98 147.5 105 c 128,-1,4
 116 112 116 112 119.5 122 c 128,-1,5
 123 132 123 132 161 139.5 c 128,-1,6
 199 147 199 147 249 148 c 1,7,-1
 256 148 l 257,8,-1
 258 148 l 257,9,-1
 260 148 l 258,10,11
 314 148 314 148 348.5 140.5 c 128,-1,12
 383 133 383 133 379 122 c 0,13,14
 375 111 375 111 335 104 c 128,-1,15
 295 97 295 97 241 97 c 2,16,-1
 239 97 l 261,0,-1
253 133 m 260,17,18
 249 133 249 133 241 133 c 1,19,-1
 241 133 l 257,20,21
 222 132 222 132 209.5 129 c 128,-1,22
 197 126 197 126 195 122 c 0,23,24
 194 118 194 118 204.5 115.5 c 128,-1,25
 215 113 215 113 234 112 c 1,26,-1
 234 112 l 257,27,28
 242 112 242 112 246 112 c 128,-1,29
 250 112 250 112 258 112 c 1,30,-1
 258 112 l 257,31,32
 277 113 277 113 289.5 115.5 c 128,-1,33
 302 118 302 118 303 122 c 0,34,35
 304 126 304 126 294 129 c 128,-1,36
 284 132 284 132 265 133 c 1,37,-1
 265 133 l 257,38,39
 257 133 257 133 253 133 c 260,17,18
515 16 m 257,40,-1
 513 16 l 257,41,-1
 506 16 l 257,42,43
 455 17 455 17 423.5 24.5 c 128,-1,44
 392 32 392 32 395.5 42 c 128,-1,45
 399 52 399 52 436.5 59.5 c 128,-1,46
 474 67 474 67 525 68 c 1,47,-1
 532 68 l 257,48,-1
 534 68 l 257,49,-1
 536 68 l 258,50,51
 590 68 590 68 624.5 60.5 c 128,-1,52
 659 53 659 53 655 42 c 0,53,54
 651 31 651 31 611 23.5 c 128,-1,55
 571 16 571 16 517 16 c 2,56,-1
 515 16 l 257,40,-1
529 53 m 256,57,58
 525 53 525 53 517 52 c 1,59,-1
 517 53 l 257,60,61
 498 52 498 52 485.5 49 c 128,-1,62
 473 46 473 46 471 42 c 0,63,64
 470 38 470 38 480.5 35 c 128,-1,65
 491 32 491 32 510 32 c 1,66,-1
 510 32 l 257,67,68
 518 32 518 32 521.5 31.5 c 128,-1,69
 525 31 525 31 534 32 c 1,70,-1
 534 32 l 257,71,72
 553 33 553 33 565.5 35.5 c 128,-1,73
 578 38 578 38 579 42 c 0,74,75
 580 46 580 46 570 49 c 128,-1,76
 560 52 560 52 541 53 c 1,77,-1
 541 52 l 257,78,79
 533 53 533 53 529 53 c 256,57,58
595 164 m 257,80,-1
 696 151 l 257,81,-1
 150 -17 l 257,82,-1
 48 -4 l 257,83,-1
 595 164 l 257,80,-1
EndSplineSet
EndChar

StartChar: ampersand
Encoding: 38 38 9
Width: 649
VWidth: 0
Flags: W
LayerCount: 2
Fore
SplineSet
448 162 m 1,0,-1
 436 138 l 1,1,2
 418 138 418 138 351 131 c 128,-1,3
 284 124 284 124 268 121 c 0,4,5
 231 114 231 114 231 104 c 1,6,-1
 252 100 l 1,7,8
 301 104 301 104 353 104 c 0,9,10
 366 104 366 104 379 103 c 1,11,-1
 368 75 l 1,12,-1
 471 52 l 1,13,14
 591 70 591 70 595 71 c 1,15,-1
 584 40 l 2,16,17
 581 40 581 40 549 36 c 1,18,-1
 608 23 l 1,19,-1
 482 -1 l 1,20,-1
 411 15 l 1,21,22
 319 1 319 1 315 1 c 0,23,24
 208 1 208 1 138 16 c 128,-1,25
 68 31 68 31 76 52 c 0,26,27
 81 66 81 66 120 78 c 1,28,-1
 105 81 l 1,29,30
 88 88 88 88 86 96 c 128,-1,31
 84 104 84 104 96.5 112 c 128,-1,32
 109 120 109 120 125.5 126.5 c 128,-1,33
 142 133 142 133 169 142 c 0,34,35
 183 147 183 147 245.5 152.5 c 128,-1,36
 308 158 308 158 370.5 161 c 128,-1,37
 433 164 433 164 448 162 c 1,0,-1
333 32 m 1,38,-1
 228 54 l 1,39,40
 227 53 227 53 227 52 c 0,41,42
 224 43 224 43 252.5 37 c 128,-1,43
 281 31 281 31 326 31 c 0,44,45
 327 31 327 31 333 32 c 1,38,-1
EndSplineSet
EndChar

StartChar: parenleft
Encoding: 40 40 10
Width: 555
VWidth: 0
Flags: W
LayerCount: 2
Fore
SplineSet
486 149 m 257,0,1
 386 149 386 149 289 127 c 128,-1,2
 192 105 192 105 182 76 c 0,3,4
 171 47 171 47 252 24.5 c 128,-1,5
 333 2 333 2 433 2 c 1,6,-1
 504 -1 l 257,7,8
 469 -2 469 -2 431 -3 c 0,9,10
 273 -3 273 -3 169.5 20 c 128,-1,11
 66 43 66 43 78 76 c 128,-1,12
 90 109 90 109 210 132 c 128,-1,13
 330 155 330 155 488 155 c 0,14,15
 527 155 527 155 561 153 c 1,16,-1
 486 149 l 257,0,1
EndSplineSet
EndChar

StartChar: parenright
Encoding: 41 41 11
Width: 555
VWidth: 0
Flags: W
LayerCount: 2
Fore
SplineSet
177 149 m 261,0,-1
 106 153 l 257,1,2
 141 154 141 154 179 155 c 0,3,4
 337 155 337 155 441 132 c 128,-1,5
 545 109 545 109 533 76 c 128,-1,6
 521 43 521 43 400.5 20 c 128,-1,7
 280 -3 280 -3 122 -3 c 0,8,9
 83 -3 83 -3 49 -1 c 1,10,-1
 124 2 l 257,11,12
 224 2 224 2 321 24 c 128,-1,13
 418 46 418 46 429 76 c 0,14,15
 440 105 440 105 358.5 127 c 128,-1,16
 277 149 277 149 177 149 c 261,0,-1
EndSplineSet
EndChar

StartChar: asterisk
Encoding: 42 42 12
Width: 644
VWidth: 0
Flags: W
LayerCount: 2
Fore
SplineSet
630 99 m 1,0,-1
 619 69 l 1,1,-1
 530 69 l 1,2,-1
 588 56 l 1,3,-1
 474 35 l 1,4,-1
 415 47 l 1,5,-1
 409 30 l 1,6,-1
 257 30 l 1,7,-1
 263 47 l 1,8,-1
 196 35 l 1,9,-1
 96 56 l 1,10,-1
 164 69 l 1,11,-1
 75 69 l 1,12,-1
 86 99 l 1,13,-1
 175 99 l 1,14,-1
 117 112 l 1,15,-1
 231 133 l 1,16,-1
 290 121 l 1,17,-1
 296 138 l 1,18,-1
 448 138 l 1,19,-1
 442 121 l 1,20,-1
 509 133 l 1,21,-1
 609 112 l 1,22,-1
 541 99 l 1,23,-1
 630 99 l 1,0,-1
EndSplineSet
EndChar

StartChar: plus
Encoding: 43 43 13
Width: 644
VWidth: 0
Flags: W
LayerCount: 2
Fore
SplineSet
630 99 m 261,0,-1
 619 69 l 257,1,-1
 75 69 l 257,2,-1
 86 99 l 257,3,-1
 630 99 l 261,0,-1
296 138 m 261,4,-1
 448 138 l 257,5,-1
 409 30 l 257,6,-1
 257 30 l 257,7,-1
 296 138 l 261,4,-1
EndSplineSet
EndChar

StartChar: comma
Encoding: 44 44 14
Width: 252
VWidth: 0
Flags: W
LayerCount: 2
Fore
SplineSet
50 -0 m 5,0,-1
 60 28 l 1,1,-1
 212 28 l 1,2,-1
 202 -0 l 1,3,-1
 132 -27 l 1,4,-1
 75 -26 l 1,5,-1
 93 -0 l 1,6,-1
 50 -0 l 5,0,-1
EndSplineSet
EndChar

StartChar: hyphen
Encoding: 45 45 15
Width: 644
VWidth: 0
Flags: W
LayerCount: 2
Fore
SplineSet
630 99 m 261,0,-1
 619 69 l 257,1,-1
 75 69 l 257,2,-1
 86 99 l 257,3,-1
 630 99 l 261,0,-1
EndSplineSet
EndChar

StartChar: period
Encoding: 46 46 16
Width: 252
VWidth: 0
Flags: W
LayerCount: 2
Fore
SplineSet
50 -0 m 257,0,-1
 60 28 l 257,1,-1
 212 28 l 257,2,-1
 202 -0 l 257,3,-1
 50 -0 l 257,0,-1
EndSplineSet
EndChar

StartChar: slash
Encoding: 47 47 17
Width: 691
VWidth: 0
Flags: W
LayerCount: 2
Fore
SplineSet
595 164 m 257,0,-1
 696 151 l 257,1,-1
 150 -17 l 257,2,-1
 48 -4 l 257,3,-1
 595 164 l 257,0,-1
EndSplineSet
EndChar

StartChar: zero
Encoding: 48 48 18
Width: 864
VWidth: 0
Flags: W
LayerCount: 2
Fore
SplineSet
765 76 m 256,0,1
 757 55 757 55 710 36.5 c 128,-1,2
 663 18 663 18 589 7.5 c 128,-1,3
 515 -3 515 -3 431.5 -3 c 128,-1,4
 348 -3 348 -3 281.5 7.5 c 128,-1,5
 215 18 215 18 180.5 36.5 c 128,-1,6
 146 55 146 55 154 76 c 0,7,8
 162 97 162 97 209.5 115.5 c 128,-1,9
 257 134 257 134 331.5 144.5 c 128,-1,10
 406 155 406 155 489 155 c 128,-1,11
 572 155 572 155 638.5 144.5 c 128,-1,12
 705 134 705 134 739 115.5 c 128,-1,13
 773 97 773 97 765 76 c 256,0,1
643 76 m 256,14,15
 650 95 650 95 601.5 108.5 c 128,-1,16
 553 122 553 122 477 122 c 128,-1,17
 401 122 401 122 342 108.5 c 128,-1,18
 283 95 283 95 276 76 c 0,19,20
 269 56 269 56 317.5 42.5 c 128,-1,21
 366 29 366 29 442.5 29 c 128,-1,22
 519 29 519 29 577.5 42.5 c 128,-1,23
 636 56 636 56 643 76 c 256,14,15
EndSplineSet
EndChar

StartChar: one
Encoding: 49 49 19
Width: 252
VWidth: 0
Flags: W
LayerCount: 2
Fore
SplineSet
106 155 m 257,0,-1
 258 155 l 257,1,-1
 202 -0 l 257,2,-1
 50 -0 l 257,3,-1
 106 155 l 257,0,-1
EndSplineSet
EndChar

StartChar: two
Encoding: 50 50 20
Width: 555
VWidth: 0
Flags: W
LayerCount: 2
Fore
SplineSet
173 117 m 4,0,1
 268 117 268 117 331 106 c 128,-1,2
 394 95 394 95 388 80 c 0,3,4
 382 65 382 65 313 55 c 128,-1,5
 244 45 244 45 146 45 c 0,6,7
 108 45 108 45 74 47 c 1,8,-1
 54 0 l 1,9,-1
 557 1 l 1,10,-1
 566 25 l 1,11,-1
 291 25 l 1,12,13
 397 32 397 32 465.5 46.5 c 128,-1,14
 534 61 534 61 541 80 c 0,15,16
 547 97 547 97 501.5 111.5 c 128,-1,17
 456 126 456 126 371 134.5 c 128,-1,18
 286 143 286 143 182 143 c 0,19,20
 145 143 145 143 109 142 c 1,21,-1
 99 115 l 1,22,23
 135 117 135 117 173 117 c 4,0,1
EndSplineSet
EndChar

StartChar: three
Encoding: 51 51 21
Width: 435
VWidth: 0
Flags: W
LayerCount: 2
Fore
SplineSet
50 -1 m 5,0,-1
 59 24 l 1,1,2
 72 23 72 23 84 23 c 0,3,4
 150 23 150 23 198 28 c 128,-1,5
 246 33 246 33 249 40 c 0,6,7
 251 47 251 47 226 52 c 128,-1,8
 201 57 201 57 161 58 c 0,9,10
 155 58 155 58 148.5 58 c 128,-1,11
 142 58 142 58 136 58 c 0,12,13
 129 58 129 58 122 57 c 1,14,-1
 122 58 l 1,15,-1
 131 82 l 1,16,-1
 131 83 l 1,17,18
 138 83 138 83 144 82 c 0,19,20
 150 82 150 82 156.5 82 c 128,-1,21
 163 82 163 82 170 82 c 0,22,23
 211 83 211 83 239.5 88 c 128,-1,24
 268 93 268 93 270 99 c 0,25,26
 273 106 273 106 230.5 111.5 c 128,-1,27
 188 117 188 117 124 117 c 0,28,29
 111 117 111 117 98 116 c 1,30,-1
 107 141 l 1,31,32
 120 141 120 141 133 141 c 0,33,34
 259 141 259 141 343 129 c 128,-1,35
 427 117 427 117 421 99 c 0,36,37
 415 82 415 82 336 70 c 1,38,39
 406 58 406 58 399.5 40.5 c 128,-1,40
 393 23 393 23 298.5 11 c 128,-1,41
 204 -1 204 -1 76 -1 c 0,42,43
 63 -1 63 -1 50 -1 c 5,0,-1
EndSplineSet
EndChar

StartChar: four
Encoding: 52 52 22
Width: 752
VWidth: 0
Flags: W
LayerCount: 2
Fore
SplineSet
394 0 m 257,0,-1
 408 38 l 257,1,-1
 407 38 l 257,2,-1
 72 38 l 257,3,-1
 436 155 l 257,4,-1
 579 155 l 257,5,-1
 523 0 l 257,6,-1
 394 0 l 257,0,-1
411 68 m 257,7,-1
 424 104 l 257,8,-1
 313 69 l 257,9,-1
 411 68 l 257,7,-1
EndSplineSet
EndChar

StartChar: five
Encoding: 53 53 23
Width: 384
VWidth: 0
Flags: W
LayerCount: 2
Fore
SplineSet
50 1 m 1,0,-1
 61 31 l 1,1,2
 73 30 73 30 87 31 c 0,3,4
 132 31 132 31 165.5 37 c 128,-1,5
 199 43 199 43 202 52 c 0,6,7
 205 61 205 61 176.5 67 c 128,-1,8
 148 73 148 73 103 73 c 0,9,10
 89 73 89 73 76 73 c 1,11,-1
 79 79 l 1,12,-1
 88 103 l 1,13,-1
 106 155 l 1,14,-1
 107 155 l 1,15,-1
 107 155 l 1,16,-1
 424 155 l 1,17,-1
 412 124 l 1,18,-1
 247 124 l 1,19,-1
 237 97 l 1,20,21
 295 90 295 90 326.5 78 c 128,-1,22
 358 66 358 66 353 52 c 0,23,24
 345 31 345 31 264 16 c 128,-1,25
 183 1 183 1 76 1 c 0,26,27
 59 1 59 1 50 1 c 1,0,-1
EndSplineSet
EndChar

StartChar: six
Encoding: 54 54 24
Width: 729
VWidth: 0
Flags: W
LayerCount: 2
Fore
SplineSet
477 122 m 0,0,1
 392 122 392 122 324 111 c 128,-1,2
 256 100 256 100 236 83 c 1,3,4
 311 98 311 98 415 100 c 0,5,6
 423 100 423 100 430 100 c 0,7,8
 432 100 432 100 433 100 c 0,9,10
 434 100 l 0,11,12
 435 100 435 100 437 100 c 0,13,14
 528 100 528 100 594.5 88.5 c 128,-1,15
 661 77 661 77 674 60 c 0,16,17
 678 54 678 54 677 48 c 0,18,19
 674 40 674 40 659 33 c 0,20,21
 622 14 622 14 533 4 c 1,22,23
 481 -3 481 -3 431 -3 c 0,24,25
 427 -3 427 -3 424 -3 c 0,26,27
 412 -3 412 -3 400 -3 c 0,28,29
 399 -3 399 -3 398 -3 c 0,30,-1
 397 -3 l 0,31,32
 396 -3 l 0,33,34
 394 -3 394 -3 392 -3 c 0,35,36
 383 -3 383 -3 378 -3 c 0,37,38
 299 -2 299 -2 240 8 c 1,39,40
 158 18 158 18 114 36.5 c 128,-1,41
 70 55 70 55 78 76 c 0,42,43
 90 109 90 109 210 132 c 128,-1,44
 330 155 330 155 488 155 c 0,45,46
 571 155 571 155 607 153 c 1,47,-1
 595 120 l 1,48,49
 580 121 580 121 540.5 121.5 c 128,-1,50
 501 122 501 122 477 122 c 0,0,1
410 73 m 0,51,52
 399 73 399 73 385 73 c 1,53,-1
 386 73 l 1,54,55
 348 72 348 72 322 66 c 128,-1,56
 296 60 296 60 293 52 c 0,57,58
 289 41 289 41 330 35 c 0,59,60
 345 33 345 33 362 32 c 0,61,62
 366 32 366 32 370 31 c 1,63,-1
 370 31 l 1,64,65
 381 30 381 30 394 31 c 0,66,67
 406 31 406 31 418 31 c 1,68,-1
 418 31 l 1,69,70
 456 32 456 32 482 38 c 128,-1,71
 508 44 508 44 511 52 c 128,-1,72
 514 60 514 60 492 65.5 c 128,-1,73
 470 71 470 71 434 73 c 1,74,-1
 433 73 l 1,75,76
 422 73 422 73 410 73 c 0,51,52
EndSplineSet
EndChar

StartChar: seven
Encoding: 55 55 25
Width: 610
VWidth: 0
Flags: W
LayerCount: 2
Fore
SplineSet
213 0 m 257,0,-1
 51 0 l 257,1,-1
 433 122 l 257,2,-1
 94 122 l 257,3,-1
 105 152 l 257,4,-1
 615 152 l 257,5,-1
 604 122 l 257,6,-1
 213 0 l 257,0,-1
EndSplineSet
EndChar

StartChar: eight
Encoding: 56 56 26
Width: 616
VWidth: 0
Flags: W
LayerCount: 2
Fore
SplineSet
337 73 m 256,0,1
 324 73 324 73 312 73 c 1,2,-1
 313 73 l 257,3,4
 275 72 275 72 249 66 c 128,-1,5
 223 60 223 60 220 52 c 0,6,7
 217 44 217 44 239 38.5 c 128,-1,8
 261 33 261 33 297 31 c 1,9,-1
 297 31 l 257,10,11
 308 30 308 30 321 31 c 0,12,13
 333 31 333 31 345 31 c 1,14,-1
 345 31 l 257,15,16
 383 32 383 32 409 38 c 128,-1,17
 435 44 435 44 438 52 c 0,18,19
 441 60 441 60 419 65.5 c 128,-1,20
 397 71 397 71 361 73 c 1,21,-1
 360 73 l 257,22,23
 349 73 349 73 337 73 c 256,0,1
359 134 m 256,24,25
 346 134 346 134 335 134 c 1,26,-1
 335 134 l 257,27,28
 297 133 297 133 271 127 c 128,-1,29
 245 121 245 121 242 113 c 0,30,31
 239 105 239 105 261 99.5 c 128,-1,32
 283 94 283 94 320 92 c 1,33,-1
 320 92 l 257,34,35
 331 91 331 91 343 92 c 0,36,37
 355 92 355 92 368 92 c 1,38,-1
 368 92 l 257,39,40
 406 93 406 93 431.5 99 c 128,-1,41
 457 105 457 105 460 113 c 0,42,43
 463 121 463 121 441 126.5 c 128,-1,44
 419 132 419 132 383 134 c 1,45,-1
 383 134 l 257,46,47
 371 134 371 134 359 134 c 256,24,25
309 1 m 0,48,49
 309 1 l 0,50,51
 307 1 307 1 305 1 c 0,52,53
 297 1 297 1 290 1 c 0,54,55
 189 2 189 2 125.5 17 c 128,-1,56
 62 32 62 32 69 52 c 0,57,58
 75 69 75 69 130 83 c 1,59,60
 85 97 85 97 91 113 c 0,61,62
 98 133 98 133 173 148 c 128,-1,63
 248 163 248 163 350 164 c 0,64,65
 356 164 356 164 364 165 c 0,66,67
 366 165 366 165 368 165 c 0,68,69
 369 165 l 0,70,71
 370 165 370 165 372 165 c 0,72,73
 479 165 479 165 549 149.5 c 128,-1,74
 619 134 619 134 611 113 c 0,75,76
 605 96 605 96 550 83 c 1,77,78
 595 69 595 69 589 52 c 0,79,80
 581 31 581 31 500 16 c 128,-1,81
 419 1 419 1 312 1 c 0,82,83
 311 1 311 1 310.5 1 c 128,-1,84
 310 1 310 1 309 1 c 0,48,49
EndSplineSet
EndChar

StartChar: nine
Encoding: 57 57 27
Width: 729
VWidth: 0
Flags: W
LayerCount: 2
Fore
SplineSet
288 29 m 0,0,1
 373 29 373 29 440.5 40.5 c 128,-1,2
 508 52 508 52 528 68 c 1,3,4
 453 53 453 53 349 52 c 0,5,6
 341 52 341 52 334 52 c 0,7,8
 332 52 332 52 331 52 c 0,9,10
 330 52 l 0,11,12
 329 52 329 52 327 52 c 0,13,14
 236 52 236 52 169.5 63 c 128,-1,15
 103 74 103 74 90 92 c 0,16,17
 86 98 86 98 88 103 c 0,18,19
 91 111 91 111 105 119 c 0,20,21
 142 138 142 138 231 148 c 1,22,23
 283 155 283 155 333 154 c 0,24,25
 337 154 337 154 340 154 c 0,26,27
 352 154 352 154 364 155 c 0,28,29
 365 155 365 155 366 155 c 0,30,-1
 367 155 l 0,31,32
 368 155 l 0,33,34
 370 155 370 155 372 155 c 0,35,36
 381 155 381 155 386 154 c 0,37,38
 465 153 465 153 524 143 c 1,39,40
 606 133 606 133 650 115 c 128,-1,41
 694 97 694 97 687 76 c 0,42,43
 675 43 675 43 554.5 20 c 128,-1,44
 434 -3 434 -3 276 -3 c 0,45,46
 193 -3 193 -3 157 -2 c 1,47,-1
 170 32 l 1,48,49
 185 31 185 31 224.5 30 c 128,-1,50
 264 29 264 29 288 29 c 0,0,1
355 78 m 0,51,52
 366 78 366 78 379 79 c 1,53,-1
 379 79 l 1,54,55
 417 80 417 80 442.5 86 c 128,-1,56
 468 92 468 92 471 100 c 0,57,58
 475 111 475 111 434 117 c 0,59,60
 419 119 419 119 402 120 c 0,61,62
 398 120 398 120 394 120 c 1,63,-1
 394 120 l 1,64,65
 383 121 383 121 370 121 c 0,66,67
 358 121 358 121 346 120 c 1,68,-1
 346 120 l 1,69,70
 308 119 308 119 282 113 c 128,-1,71
 256 107 256 107 253 100 c 0,72,73
 250 92 250 92 272 86 c 128,-1,74
 294 80 294 80 331 79 c 1,75,-1
 331 79 l 1,76,77
 343 78 343 78 355 78 c 0,51,52
EndSplineSet
EndChar

StartChar: colon
Encoding: 58 58 28
Width: 252
VWidth: 0
Flags: W
LayerCount: 2
Fore
SplineSet
79 80 m 261,0,-1
 89 108 l 257,1,-1
 241 108 l 257,2,-1
 231 80 l 257,3,-1
 79 80 l 261,0,-1
50 -0 m 257,4,-1
 60 28 l 257,5,-1
 212 28 l 257,6,-1
 202 -0 l 257,7,-1
 50 -0 l 257,4,-1
EndSplineSet
EndChar

StartChar: semicolon
Encoding: 59 59 29
Width: 252
VWidth: 0
Flags: W
LayerCount: 2
Fore
SplineSet
50 -0 m 5,0,-1
 60 28 l 1,1,-1
 212 28 l 1,2,-1
 202 -0 l 1,3,-1
 132 -27 l 1,4,-1
 75 -26 l 1,5,-1
 93 -0 l 1,6,-1
 50 -0 l 5,0,-1
79 80 m 257,7,-1
 89 108 l 257,8,-1
 241 108 l 257,9,-1
 231 80 l 257,10,-1
 79 80 l 257,7,-1
EndSplineSet
EndChar

StartChar: less
Encoding: 60 60 30
Width: 644
VWidth: 0
Flags: W
LayerCount: 2
Fore
SplineSet
634 109 m 5,0,-1
 623 79 l 1,1,-1
 404 68 l 1,2,-1
 616 59 l 1,3,-1
 604 29 l 1,4,-1
 68 50 l 1,5,-1
 68 50 l 1,6,-1
 79 80 l 1,7,-1
 79 81 l 1,8,-1
 634 109 l 5,0,-1
EndSplineSet
EndChar

StartChar: equal
Encoding: 61 61 31
Width: 644
VWidth: 0
Flags: W
LayerCount: 2
Fore
SplineSet
616 59 m 261,0,-1
 604 29 l 257,1,-1
 60 29 l 257,2,-1
 72 59 l 257,3,-1
 616 59 l 261,0,-1
634 109 m 257,4,-1
 623 79 l 257,5,-1
 79 79 l 257,6,-1
 90 109 l 257,7,-1
 634 109 l 257,4,-1
EndSplineSet
EndChar

StartChar: greater
Encoding: 62 62 32
Width: 644
VWidth: 0
Flags: W
LayerCount: 2
Fore
SplineSet
90 109 m 5,0,-1
 623 81 l 1,1,-1
 623 80 l 1,2,-1
 612 50 l 1,3,-1
 612 50 l 1,4,-1
 60 29 l 1,5,-1
 72 59 l 1,6,-1
 289 68 l 1,7,-1
 79 79 l 1,8,-1
 90 109 l 5,0,-1
EndSplineSet
EndChar

StartChar: question
Encoding: 63 63 33
Width: 384
VWidth: 0
Flags: W
LayerCount: 2
Fore
SplineSet
50 -0 m 257,0,-1
 60 28 l 257,1,-1
 212 28 l 257,2,-1
 202 -0 l 257,3,-1
 50 -0 l 257,0,-1
110 166 m 1,4,5
 119 166 119 166 136 166 c 0,6,7
 243 166 243 166 313 151 c 128,-1,8
 383 136 383 136 376 114 c 0,9,10
 371 100 371 100 330.5 88 c 128,-1,11
 290 76 290 76 227 69 c 1,12,-1
 219 46 l 1,13,-1
 67 46 l 1,14,-1
 73 63 l 1,15,-1
 82 88 l 1,16,-1
 84 94 l 1,17,18
 96 93 96 93 110 93 c 0,19,20
 155 93 155 93 188 99 c 128,-1,21
 221 105 221 105 225 114 c 0,22,23
 228 123 228 123 199 129.5 c 128,-1,24
 170 136 170 136 125 136 c 0,25,26
 111 136 111 136 99 135 c 1,27,-1
 110 166 l 1,4,5
EndSplineSet
EndChar

StartChar: .notdef
Encoding: 64 -1 34
Width: 864
VWidth: 0
Flags: W
LayerCount: 2
Fore
SplineSet
536 33 m 1025,0,-1
516 84 m 257,1,2
 512 84 512 84 504 84 c 0,3,4
 481 84 481 84 464 81 c 128,-1,5
 447 78 447 78 445.5 73.5 c 128,-1,6
 444 69 444 69 458.5 66 c 128,-1,7
 473 63 473 63 496 63 c 0,8,9
 500 63 500 63 508 63 c 1,10,-1
 516 84 l 257,1,2
578 47 m 1025,11,-1
504 46 m 1,12,-1
 490 48 l 1,13,14
 436 48 436 48 401 55.5 c 128,-1,15
 366 63 366 63 370 74 c 128,-1,16
 374 85 374 85 414.5 91.5 c 128,-1,17
 455 98 455 98 509 98 c 2,18,-1
 521 98 l 1,19,-1
 597 98 l 1,20,-1
 591 64 l 2,21,22
 592 62 592 62 605 59 c 128,-1,23
 618 56 618 56 633.5 54.5 c 128,-1,24
 649 53 649 53 664.5 55.5 c 128,-1,25
 680 58 680 58 686 65 c 0,26,-1
 684.5 66.5 l 0,27,-1
 683 68 l 0,28,29
 696 79 696 79 683.5 89.5 c 128,-1,30
 671 100 671 100 634 108 c 0,31,32
 571 121 571 121 475.5 121 c 128,-1,33
 380 121 380 121 307 107 c 0,34,35
 233 93 233 93 225 74 c 128,-1,36
 217 55 217 55 279 42 c 0,37,38
 327 32 327 32 398.5 29.5 c 128,-1,39
 470 27 470 27 536 33 c 0,40,41
 547 34 547 34 573 28.5 c 128,-1,42
 599 23 599 23 620 17 c 2,43,-1
 641 11 l 1,44,45
 522 -4 522 -4 386 -2 c 128,-1,46
 250 0 250 0 160 20 c 0,47,48
 56 42 56 42 70.5 74 c 128,-1,49
 85 106 85 106 208 129 c 128,-1,50
 331 152 331 152 492 152.5 c 128,-1,51
 653 153 653 153 757 131 c 0,52,53
 835 114 835 114 847 89.5 c 128,-1,54
 859 65 859 65 803 44 c 1,55,56
 780 41 780 41 757.5 39.5 c 128,-1,57
 735 38 735 38 710.5 38 c 128,-1,58
 686 38 686 38 669 37.5 c 128,-1,59
 652 37 652 37 625.5 38.5 c 128,-1,60
 599 40 599 40 586.5 40.5 c 128,-1,61
 574 41 574 41 543.5 43 c 128,-1,62
 513 45 513 45 504 46 c 1,12,-1
EndSplineSet
EndChar

StartChar: B
Encoding: 66 66 35
Width: 512
VWidth: 0
Flags: W
LayerCount: 2
Fore
SplineSet
259 156 m 258,0,1
 265 156 265 156 277 156 c 0,2,3
 384 156 384 156 454 141 c 128,-1,4
 524 126 524 126 516 104 c 0,5,6
 514 99 514 99 498.5 95 c 128,-1,7
 483 91 483 91 456.5 86 c 128,-1,8
 430 81 430 81 424 79 c 0,9,10
 426 79 426 79 454 72.5 c 128,-1,11
 482 66 482 66 493.5 61.5 c 128,-1,12
 505 57 505 57 503 52 c 0,13,14
 495 31 495 31 414 16 c 128,-1,15
 333 1 333 1 226 1 c 0,16,17
 210 1 210 1 202 1 c 2,18,-1
 50 1 l 257,19,-1
 107 156 l 257,20,-1
 259 156 l 258,0,1
212 27 m 257,21,22
 224 26 224 26 236 27 c 256,23,24
 281 27 281 27 314 33 c 128,-1,25
 347 39 347 39 350 48 c 0,26,27
 353 57 353 57 324.5 63 c 128,-1,28
 296 69 296 69 251 69 c 0,29,30
 239 69 239 69 227 69 c 257,31,-1
 212 27 l 257,21,22
235 91 m 257,32,33
 247 90 247 90 259 90 c 256,34,35
 304 90 304 90 337 96.5 c 128,-1,36
 370 103 370 103 374 111 c 0,37,38
 377 120 377 120 348 126.5 c 128,-1,39
 319 133 319 133 274 133 c 0,40,41
 262 133 262 133 250 132 c 257,42,-1
 235 91 l 257,32,33
EndSplineSet
EndChar

StartChar: C
Encoding: 67 67 36
Width: 555
VWidth: 0
Flags: W
LayerCount: 2
Fore
SplineSet
477 122 m 260,0,1
 382 122 382 122 310 108.5 c 128,-1,2
 238 95 238 95 231 76 c 0,3,4
 224 56 224 56 285.5 42.5 c 128,-1,5
 347 29 347 29 442 29 c 0,6,7
 480 29 480 29 516 31 c 1,8,-1
 505 -1 l 257,9,10
 468 -2 468 -2 431 -3 c 0,11,12
 273 -3 273 -3 169.5 20 c 128,-1,13
 66 43 66 43 78 76 c 128,-1,14
 90 109 90 109 210 132 c 128,-1,15
 330 155 330 155 488 155 c 0,16,17
 525 155 525 155 561 153 c 1,18,-1
 549 120 l 257,19,20
 515 122 515 122 477 122 c 260,0,1
EndSplineSet
EndChar

StartChar: D
Encoding: 68 68 37
Width: 630
VWidth: 0
Flags: W
LayerCount: 2
Fore
SplineSet
106 154 m 257,0,1
 121 153 121 153 180 154 c 128,-1,2
 239 155 239 155 254 155 c 0,3,4
 412 155 412 155 516 132 c 128,-1,5
 620 109 620 109 608 76 c 0,6,7
 600 55 600 55 543 37 c 128,-1,8
 486 19 486 19 395 8 c 128,-1,9
 304 -3 304 -3 201 -3 c 0,10,-1
 49 -3 l 257,11,-1
 106 154 l 257,0,1
212 29 m 257,12,13
 306 29 306 29 376.5 42.5 c 128,-1,14
 447 56 447 56 455 76 c 0,15,16
 462 95 462 95 401 108.5 c 128,-1,17
 340 122 340 122 247 122 c 1,18,-1
 212 29 l 257,12,13
EndSplineSet
EndChar

StartChar: E
Encoding: 69 69 38
Width: 668
VWidth: 0
Flags: W
LayerCount: 2
Fore
SplineSet
544 97 m 257,0,-1
 534 67 l 257,1,-1
 226 67 l 257,2,-1
 213 30 l 257,3,-1
 628 30 l 257,4,-1
 618 -1 l 257,5,-1
 51 -1 l 257,6,-1
 51 -0 l 257,7,-1
 50 -0 l 257,8,-1
 106 155 l 257,9,-1
 107 156 l 257,10,-1
 674 156 l 257,11,-1
 664 125 l 257,12,-1
 248 125 l 257,13,-1
 237 97 l 257,14,-1
 544 97 l 257,0,-1
EndSplineSet
EndChar

StartChar: F
Encoding: 70 70 39
Width: 668
VWidth: 0
Flags: W
LayerCount: 2
Fore
SplineSet
544 97 m 257,0,-1
 534 67 l 257,1,-1
 226 67 l 257,2,-1
 202 -0 l 257,3,-1
 50 -0 l 257,4,-1
 106 155 l 257,5,-1
 107 156 l 257,6,-1
 674 156 l 257,7,-1
 664 125 l 257,8,-1
 248 125 l 257,9,-1
 237 97 l 257,10,-1
 544 97 l 257,0,-1
EndSplineSet
EndChar

StartChar: G
Encoding: 71 71 40
Width: 651
VWidth: 0
Flags: W
LayerCount: 2
Fore
SplineSet
477 122 m 256,0,1
 382 122 382 122 310 108.5 c 128,-1,2
 238 95 238 95 231 76 c 0,3,4
 224 56 224 56 285.5 42.5 c 128,-1,5
 347 29 347 29 442 29 c 0,6,7
 451 29 451 29 459 29 c 1,8,-1
 472 63 l 257,9,-1
 624 63 l 257,10,-1
 600 -3 l 257,11,-1
 448 -3 l 258,12,13
 440 -3 440 -3 431 -3 c 0,14,15
 273 -3 273 -3 169.5 20 c 128,-1,16
 66 43 66 43 78 76 c 128,-1,17
 90 109 90 109 210 132 c 128,-1,18
 330 155 330 155 488 155 c 0,19,20
 525 155 525 155 561 153 c 1,21,-1
 549 120 l 257,22,23
 515 122 515 122 477 122 c 256,0,1
EndSplineSet
EndChar

StartChar: H
Encoding: 72 72 41
Width: 652
VWidth: 0
Flags: W
LayerCount: 2
Fore
SplineSet
506 155 m 257,0,-1
 658 155 l 257,1,-1
 602 -0 l 257,2,-1
 450 -0 l 257,3,-1
 474 67 l 257,4,-1
 226 67 l 257,5,-1
 202 -0 l 257,6,-1
 50 -0 l 257,7,-1
 106 155 l 257,8,-1
 258 155 l 257,9,-1
 237 97 l 257,10,-1
 485 97 l 257,11,-1
 506 155 l 257,0,-1
EndSplineSet
EndChar

StartChar: I
Encoding: 73 73 42
Width: 252
VWidth: 0
Flags: W
LayerCount: 2
Fore
SplineSet
106 155 m 257,0,-1
 258 155 l 257,1,-1
 202 -0 l 257,2,-1
 50 -0 l 257,3,-1
 106 155 l 257,0,-1
EndSplineSet
EndChar

StartChar: J
Encoding: 74 74 43
Width: 419
VWidth: 0
Flags: W
LayerCount: 2
Fore
SplineSet
50 1 m 257,0,-1
 63 35 l 257,1,2
 92 30 92 30 132 30 c 0,3,4
 181 30 181 30 215 37 c 1,5,-1
 257 152 l 257,6,-1
 424 152 l 257,7,-1
 379 37 l 257,8,9
 349 20 349 20 278.5 9.5 c 128,-1,10
 208 -1 208 -1 121 -1 c 0,11,12
 83 -1 83 -1 50 1 c 257,0,-1
EndSplineSet
EndChar

StartChar: K
Encoding: 75 75 44
Width: 703
VWidth: 0
Flags: W
LayerCount: 2
Fore
SplineSet
106 155 m 257,0,-1
 258 155 l 257,1,-1
 234 87 l 257,2,-1
 503 154 l 257,3,-1
 689 154 l 257,4,-1
 400 77 l 257,5,-1
 703 -1 l 257,6,-1
 511 -0 l 257,7,-1
 281 60 l 257,8,-1
 218 44 l 257,9,-1
 202 -0 l 257,10,-1
 50 -0 l 257,11,-1
 106 155 l 257,0,-1
EndSplineSet
EndChar

StartChar: L
Encoding: 76 76 45
Width: 718
VWidth: 0
Flags: W
LayerCount: 2
Fore
SplineSet
106 155 m 261,0,-1
 258 155 l 257,1,-1
 213 30 l 257,2,-1
 678 30 l 257,3,-1
 668 -1 l 257,4,-1
 51 -1 l 257,5,-1
 51 -0 l 257,6,-1
 50 -0 l 257,7,-1
 106 155 l 261,0,-1
EndSplineSet
EndChar

StartChar: M
Encoding: 77 77 46
Width: 1052
VWidth: 0
Flags: W
LayerCount: 2
Fore
SplineSet
106 154 m 257,0,-1
 258 154 l 257,1,-1
 537 29 l 257,2,-1
 906 154 l 257,3,-1
 1058 154 l 257,4,-1
 1002 -0 l 257,5,-1
 850 -0 l 257,6,-1
 885 95 l 257,7,-1
 602 0 l 257,8,-1
 450 0 l 257,9,-1
 237 95 l 257,10,-1
 202 -0 l 257,11,-1
 50 -0 l 257,12,-1
 106 154 l 257,0,-1
EndSplineSet
EndChar

StartChar: N
Encoding: 78 78 47
Width: 852
VWidth: 0
Flags: W
LayerCount: 2
Fore
SplineSet
106 155 m 257,0,-1
 258 155 l 257,1,-1
 668 50 l 257,2,-1
 706 155 l 257,3,-1
 858 155 l 257,4,-1
 802 -0 l 257,5,-1
 650 -0 l 257,6,-1
 240 105 l 257,7,-1
 202 -0 l 257,8,-1
 50 -0 l 257,9,-1
 106 155 l 257,0,-1
EndSplineSet
EndChar

StartChar: O
Encoding: 79 79 48
Width: 864
VWidth: 0
Flags: W
LayerCount: 2
Fore
SplineSet
842 76 m 260,0,1
 830 43 830 43 709.5 20 c 128,-1,2
 589 -3 589 -3 431 -3 c 128,-1,3
 273 -3 273 -3 169.5 20 c 128,-1,4
 66 43 66 43 78 76 c 128,-1,5
 90 109 90 109 210 132 c 128,-1,6
 330 155 330 155 488 155 c 128,-1,7
 646 155 646 155 750 132 c 128,-1,8
 854 109 854 109 842 76 c 260,0,1
689 76 m 260,9,10
 696 95 696 95 634 108.5 c 128,-1,11
 572 122 572 122 477 122 c 128,-1,12
 382 122 382 122 310 108.5 c 128,-1,13
 238 95 238 95 231 76 c 0,14,15
 224 56 224 56 285.5 42.5 c 128,-1,16
 347 29 347 29 442 29 c 128,-1,17
 537 29 537 29 609.5 42.5 c 128,-1,18
 682 56 682 56 689 76 c 260,9,10
EndSplineSet
EndChar

StartChar: P
Encoding: 80 80 49
Width: 534
VWidth: 0
Flags: W
LayerCount: 2
Fore
SplineSet
202 1 m 257,0,-1
 50 1 l 257,1,-1
 107 156 l 257,2,-1
 259 156 l 258,3,4
 267 156 267 156 283 156 c 0,5,6
 390 156 390 156 460 141 c 128,-1,7
 530 126 530 126 522 104.5 c 128,-1,8
 514 83 514 83 433 68 c 128,-1,9
 352 53 352 53 245 53 c 0,10,11
 229 53 229 53 221 53 c 1,12,-1
 202 1 l 257,0,-1
248 125 m 257,13,-1
 233 84 l 257,14,15
 245 83 245 83 256 83 c 256,16,17
 301 83 301 83 334.5 89.5 c 128,-1,18
 368 96 368 96 371 105 c 0,19,20
 374 114 374 114 345.5 120 c 128,-1,21
 317 126 317 126 272 126 c 0,22,23
 260 126 260 126 248 125 c 257,13,-1
EndSplineSet
EndChar

StartChar: Q
Encoding: 81 81 50
Width: 864
VWidth: 0
Flags: W
LayerCount: 2
Fore
SplineSet
689 76 m 256,0,1
 696 95 696 95 634 108.5 c 128,-1,2
 572 122 572 122 477 122 c 128,-1,3
 382 122 382 122 310 108.5 c 128,-1,4
 238 95 238 95 231 76 c 0,5,6
 224 56 224 56 285.5 42.5 c 128,-1,7
 347 29 347 29 442 29 c 128,-1,8
 537 29 537 29 609.5 42.5 c 128,-1,9
 682 56 682 56 689 76 c 256,0,1
842 76 m 256,10,11
 836 59 836 59 796 43.5 c 128,-1,12
 756 28 756 28 691 17 c 1,13,-1
 818 -10 l 257,14,-1
 670 -38 l 257,15,-1
 500 -2 l 257,16,17
 466 -3 466 -3 431 -3 c 0,18,19
 273 -3 273 -3 169.5 20 c 128,-1,20
 66 43 66 43 78 76 c 128,-1,21
 90 109 90 109 210 132 c 128,-1,22
 330 155 330 155 488 155 c 128,-1,23
 646 155 646 155 750 132 c 128,-1,24
 854 109 854 109 842 76 c 256,10,11
EndSplineSet
EndChar

StartChar: R
Encoding: 82 82 51
Width: 512
VWidth: 0
Flags: W
LayerCount: 2
Fore
SplineSet
248 125 m 257,0,-1
 233 84 l 257,1,2
 245 83 245 83 256 83 c 256,3,4
 301 83 301 83 334.5 89.5 c 128,-1,5
 368 96 368 96 371 105 c 0,6,7
 374 114 374 114 345.5 120 c 128,-1,8
 317 126 317 126 272 126 c 0,9,10
 260 126 260 126 248 125 c 257,0,-1
202 1 m 257,11,-1
 50 1 l 257,12,-1
 107 156 l 257,13,-1
 259 156 l 258,14,15
 267 156 267 156 283 156 c 0,16,17
 390 156 390 156 460 141 c 128,-1,18
 530 126 530 126 522 105 c 0,19,20
 516 88 516 88 463.5 74.5 c 128,-1,21
 411 61 411 61 334 56 c 1,22,-1
 512 -1 l 257,23,-1
 372 -1 l 257,24,-1
 226 53 l 258,25,26
 223 53 223 53 221 53 c 1,27,-1
 202 1 l 257,11,-1
EndSplineSet
EndChar

StartChar: S
Encoding: 83 83 52
Width: 512
VWidth: 0
Flags: W
LayerCount: 2
Fore
SplineSet
59 11 m 257,0,-1
 143 36 l 257,1,2
 154 34 154 34 164 33 c 0,3,4
 200 29 200 29 243 31 c 128,-1,5
 286 33 286 33 312 40 c 0,6,7
 337 48 337 48 314.5 55 c 128,-1,8
 292 62 292 62 250 63 c 1,9,10
 186 70 186 70 148.5 79.5 c 128,-1,11
 111 89 111 89 105 101.5 c 128,-1,12
 99 114 99 114 148 128 c 0,13,14
 206 145 206 145 311 150 c 128,-1,15
 416 155 416 155 506 145 c 0,16,17
 509 144 509 144 516 143.5 c 128,-1,18
 523 143 523 143 526 142 c 1,19,-1
 442 117 l 257,20,21
 431 119 431 119 421 120 c 0,22,23
 385 124 385 124 341.5 122 c 128,-1,24
 298 120 298 120 273 113 c 0,25,26
 245 105 245 105 262 95 c 128,-1,27
 279 85 279 85 326 84 c 1,28,29
 373 79 373 79 405 73.5 c 128,-1,30
 437 68 437 68 459 61 c 128,-1,31
 481 54 481 54 476 45 c 128,-1,32
 471 36 471 36 436 26 c 0,33,34
 378 8 378 8 273.5 3 c 128,-1,35
 169 -2 169 -2 79 8 c 0,36,37
 76 9 76 9 69 9.5 c 128,-1,38
 62 10 62 10 59 11 c 257,0,-1
EndSplineSet
EndChar

StartChar: T
Encoding: 84 84 53
Width: 676
VWidth: 0
Flags: W
LayerCount: 2
Fore
SplineSet
321 153 m 257,0,-1
 473 153 l 257,1,-1
 417 -0 l 257,2,-1
 265 -0 l 257,3,-1
 321 153 l 257,0,-1
98 123 m 257,4,-1
 109 153 l 257,5,-1
 685 153 l 257,6,-1
 674 123 l 257,7,-1
 98 123 l 257,4,-1
EndSplineSet
EndChar

StartChar: U
Encoding: 85 85 54
Width: 669
VWidth: 0
Flags: W
LayerCount: 2
Fore
SplineSet
629 37 m 257,0,1
 609 25 609 25 561.5 17 c 128,-1,2
 514 9 514 9 456.5 5 c 128,-1,3
 399 1 399 1 335 1 c 128,-1,4
 271 1 271 1 216 4.5 c 128,-1,5
 161 8 161 8 120 16.5 c 128,-1,6
 79 25 79 25 66 37 c 1,7,-1
 105 152 l 257,8,-1
 272 152 l 257,9,-1
 230 37 l 257,10,11
 257 30 257 30 346 30 c 128,-1,12
 435 30 435 30 465 37 c 1,13,-1
 507 152 l 257,14,-1
 674 152 l 257,15,-1
 629 37 l 257,0,1
EndSplineSet
EndChar

StartChar: V
Encoding: 86 86 55
Width: 652
VWidth: 0
Flags: W
LayerCount: 2
Fore
SplineSet
106 154 m 257,0,-1
 258 154 l 257,1,-1
 347 58 l 257,2,-1
 506 154 l 257,3,-1
 658 154 l 257,4,-1
 402 0 l 257,5,-1
 250 0 l 257,6,-1
 106 154 l 257,0,-1
EndSplineSet
EndChar

StartChar: W
Encoding: 87 87 56
Width: 1000
VWidth: 0
Flags: W
LayerCount: 2
Fore
SplineSet
106 154 m 257,0,-1
 258 154 l 257,1,-1
 347 58 l 257,2,-1
 506 154 l 257,3,-1
 658 154 l 257,4,-1
 402 0 l 257,5,-1
 250 0 l 257,6,-1
 106 154 l 257,0,-1
507 154 m 257,7,-1
 659 154 l 257,8,-1
 748 58 l 257,9,-1
 907 154 l 257,10,-1
 1059 154 l 257,11,-1
 803 0 l 257,12,-1
 651 0 l 257,13,-1
 507 154 l 257,7,-1
EndSplineSet
EndChar

StartChar: X
Encoding: 88 88 57
Width: 724
VWidth: 0
Flags: W
LayerCount: 2
Fore
SplineSet
106 154 m 257,0,-1
 292 154 l 257,1,-1
 405 108 l 257,2,-1
 554 154 l 257,3,-1
 729 154 l 257,4,-1
 481 78 l 257,5,-1
 674 0 l 257,6,-1
 499 -0 l 257,7,-1
 380 47 l 257,8,-1
 229 0 l 257,9,-1
 51 -0 l 257,10,-1
 302 77 l 257,11,-1
 106 154 l 257,0,-1
EndSplineSet
EndChar

StartChar: Y
Encoding: 89 89 58
Width: 512
VWidth: 0
Flags: W
LayerCount: 2
Fore
SplineSet
226 90 m 257,0,-1
 50 153 l 257,1,-1
 202 153 l 257,2,-1
 313 119 l 257,3,-1
 450 153 l 257,4,-1
 602 153 l 257,5,-1
 379 90 l 257,6,-1
 378 90 l 257,7,-1
 345 0 l 257,8,-1
 193 0 l 257,9,-1
 226 90 l 257,0,-1
EndSplineSet
EndChar

StartChar: Z
Encoding: 90 90 59
Width: 783
VWidth: 0
Flags: W
LayerCount: 2
Fore
SplineSet
51 2 m 257,0,-1
 62 32 l 257,1,-1
 524 122 l 257,2,-1
 94 122 l 257,3,-1
 105 152 l 257,4,-1
 788 152 l 257,5,-1
 777 122 l 257,6,-1
 313 32 l 257,7,-1
 745 32 l 257,8,-1
 734 2 l 257,9,-1
 51 2 l 257,0,-1
EndSplineSet
EndChar

StartChar: bracketleft
Encoding: 91 91 60
Width: 362
VWidth: 0
Flags: W
LayerCount: 2
Fore
SplineSet
45 -16 m 5,0,-1
 44 -16 l 1,1,-1
 44 -16 l 1,2,-1
 106 155 l 1,3,-1
 106 155 l 1,4,-1
 107 155 l 1,5,-1
 368 155 l 1,6,-1
 361 138 l 1,7,-1
 194 138 l 1,8,-1
 144 1 l 1,9,-1
 311 1 l 1,10,-1
 306 -16 l 1,11,-1
 45 -16 l 5,0,-1
EndSplineSet
EndChar

StartChar: backslash
Encoding: 92 92 61
Width: 691
VWidth: 0
Flags: W
LayerCount: 2
Fore
SplineSet
216 164 m 257,0,-1
 639 -4 l 257,1,-1
 529 -17 l 257,2,-1
 105 151 l 257,3,-1
 216 164 l 257,0,-1
EndSplineSet
EndChar

StartChar: bracketright
Encoding: 93 93 62
Width: 362
VWidth: 0
Flags: W
LayerCount: 2
Fore
SplineSet
305 -16 m 1,0,-1
 44 -16 l 1,1,-1
 51 1 l 1,2,-1
 218 1 l 1,3,-1
 268 138 l 1,4,-1
 101 138 l 1,5,-1
 106 155 l 1,6,-1
 367 155 l 1,7,-1
 368 155 l 1,8,-1
 368 155 l 1,9,-1
 306 -16 l 1,10,-1
 306 -16 l 1,11,-1
 305 -16 l 1,0,-1
EndSplineSet
EndChar

StartChar: asciicircum
Encoding: 94 94 63
Width: 644
VWidth: 0
Flags: W
LayerCount: 2
Fore
SplineSet
142 57 m 1,0,-1
 309 123 l 1,1,-1
 310 123 l 1,2,-1
 461 123 l 1,3,-1
 462 123 l 1,4,-1
 544 57 l 1,5,-1
 392 57 l 1,6,-1
 365 99 l 1,7,-1
 294 57 l 1,8,-1
 142 57 l 1,0,-1
EndSplineSet
EndChar

StartChar: underscore
Encoding: 95 95 64
Width: 544
VWidth: 0
Flags: W
LayerCount: 2
Fore
SplineSet
558 39 m 261,0,-1
 547 9 l 257,1,-1
 3 9 l 257,2,-1
 14 39 l 257,3,-1
 558 39 l 261,0,-1
EndSplineSet
EndChar

StartChar: grave
Encoding: 96 96 65
Width: 252
VWidth: 0
Flags: W
LayerCount: 2
Fore
SplineSet
201 103 m 261,0,-1
 32 140 l 257,1,-1
 148 161 l 257,2,-1
 316 125 l 257,3,-1
 201 103 l 261,0,-1
EndSplineSet
EndChar

StartChar: a
Encoding: 97 97 66
Width: 512
VWidth: 0
Flags: W
LayerCount: 2
Fore
SplineSet
332 0 m 257,0,-1
 333 2 l 257,1,2
 325 2 325 2 309 2 c 0,3,4
 202 2 202 2 132 17 c 128,-1,5
 62 32 62 32 69 53 c 0,6,7
 77 74 77 74 157 88.5 c 128,-1,8
 237 103 237 103 345 103 c 0,9,10
 361 103 361 103 369 103 c 2,11,-1
 521 103 l 257,12,-1
 484 0 l 257,13,-1
 332 0 l 257,0,-1
359 74 m 257,14,15
 347 75 347 75 335 74 c 256,16,17
 290 74 290 74 257 68 c 128,-1,18
 224 62 224 62 220 53 c 0,19,20
 217 44 217 44 246 38 c 128,-1,21
 275 32 275 32 320 32 c 0,22,23
 332 32 332 32 344 32 c 257,24,-1
 359 74 l 257,14,15
EndSplineSet
EndChar

StartChar: b
Encoding: 98 98 67
Width: 512
VWidth: 0
Flags: W
LayerCount: 2
Fore
SplineSet
259 156 m 257,0,-1
 240 103 l 257,1,2
 248 103 248 103 264 104 c 0,3,4
 371 104 371 104 441 88.5 c 128,-1,5
 511 73 511 73 503 52 c 128,-1,6
 495 31 495 31 414 16 c 128,-1,7
 333 1 333 1 226 1 c 0,8,9
 210 1 210 1 202 1 c 2,10,-1
 50 1 l 257,11,-1
 107 156 l 257,12,-1
 259 156 l 257,0,-1
213 31 m 257,13,14
 225 30 225 30 237 31 c 256,15,16
 282 31 282 31 315.5 37 c 128,-1,17
 349 43 349 43 352 52 c 0,18,19
 355 61 355 61 326.5 67 c 128,-1,20
 298 73 298 73 253 73 c 0,21,22
 241 73 241 73 228 73 c 257,23,-1
 213 31 l 257,13,14
EndSplineSet
EndChar

StartChar: c
Encoding: 99 99 68
Width: 384
VWidth: 0
Flags: W
LayerCount: 2
Fore
SplineSet
334 1 m 261,0,1
 321 1 321 1 308 1 c 0,2,3
 201 1 201 1 131 16 c 128,-1,4
 61 31 61 31 69 52 c 128,-1,5
 77 73 77 73 158 88.5 c 128,-1,6
 239 104 239 104 346 104 c 0,7,8
 359 104 359 104 372 103 c 1,9,-1
 360 73 l 257,10,11
 347 74 347 74 335 73 c 0,12,13
 290 73 290 73 256.5 67 c 128,-1,14
 223 61 223 61 220 52 c 0,15,16
 217 43 217 43 245.5 37 c 128,-1,17
 274 31 274 31 319 31 c 0,18,19
 332 31 332 31 345 31 c 1,20,-1
 334 1 l 261,0,1
EndSplineSet
EndChar

StartChar: d
Encoding: 100 100 69
Width: 512
VWidth: 0
Flags: W
LayerCount: 2
Fore
SplineSet
389 156 m 257,0,-1
 541 156 l 257,1,-1
 484 1 l 257,2,-1
 332 1 l 258,3,4
 320 1 320 1 308 1 c 0,5,6
 201 1 201 1 131 16 c 128,-1,7
 61 31 61 31 69 52 c 128,-1,8
 77 73 77 73 158 88.5 c 128,-1,9
 239 104 239 104 346 104 c 0,10,11
 358 104 358 104 370 103 c 1,12,-1
 389 156 l 257,0,-1
343 31 m 257,13,-1
 359 73 l 257,14,15
 347 74 347 74 335 73 c 0,16,17
 290 73 290 73 256.5 67 c 128,-1,18
 223 61 223 61 220 52 c 0,19,20
 217 43 217 43 245.5 37 c 128,-1,21
 274 31 274 31 319 31 c 0,22,23
 331 30 331 30 343 31 c 257,13,-1
EndSplineSet
EndChar

StartChar: e
Encoding: 101 101 70
Width: 617
VWidth: 0
Flags: W
LayerCount: 2
Fore
SplineSet
585 52 m 256,0,1
 584 50 584 50 583.5 46.5 c 128,-1,2
 583 43 583 43 582 42 c 1,3,-1
 231 41 l 257,4,5
 243 36 243 36 266.5 33.5 c 128,-1,6
 290 31 290 31 319 31 c 0,7,8
 353 31 353 31 457 31.5 c 128,-1,9
 561 32 561 32 569 32 c 1,10,-1
 557 1 l 257,11,12
 538 0 538 0 308 1 c 0,13,14
 201 1 201 1 131 16 c 128,-1,15
 61 31 61 31 69 52 c 128,-1,16
 77 73 77 73 158 88.5 c 128,-1,17
 239 104 239 104 346 104 c 128,-1,18
 453 104 453 104 523 88.5 c 128,-1,19
 593 73 593 73 585 52 c 256,0,1
255 67 m 257,20,-1
 411 66 l 257,21,22
 382 73 382 73 335 73 c 0,23,24
 289 74 289 74 255 67 c 257,20,-1
EndSplineSet
EndChar

StartChar: f
Encoding: 102 102 71
Width: 512
VWidth: 0
Flags: W
LayerCount: 2
Fore
SplineSet
519 150 m 257,0,-1
 507 117 l 257,1,2
 478 122 478 122 437 122 c 0,3,4
 388 122 388 122 354 115 c 1,5,-1
 312 -1 l 257,6,-1
 145 -1 l 257,7,-1
 190 115 l 257,8,9
 220 132 220 132 290.5 142 c 128,-1,10
 361 152 361 152 448 152 c 0,11,12
 486 152 486 152 519 150 c 257,0,-1
87 102 m 257,13,-1
 446 102 l 257,14,-1
 435 72 l 257,15,-1
 76 72 l 257,16,-1
 87 102 l 257,13,-1
EndSplineSet
EndChar

StartChar: g
Encoding: 103 103 72
Width: 620
VWidth: 0
Flags: W
LayerCount: 2
Fore
SplineSet
337 73 m 256,0,1
 324 73 324 73 312 73 c 1,2,-1
 313 73 l 257,3,4
 275 72 275 72 249 66 c 128,-1,5
 223 60 223 60 220 52 c 0,6,7
 217 44 217 44 239 38.5 c 128,-1,8
 261 33 261 33 297 31 c 1,9,-1
 297 31 l 257,10,11
 308 30 308 30 321 31 c 0,12,13
 333 31 333 31 345 31 c 1,14,-1
 345 31 l 257,15,16
 383 32 383 32 409 38 c 128,-1,17
 435 44 435 44 438 52 c 0,18,19
 441 60 441 60 419 65.5 c 128,-1,20
 397 71 397 71 361 73 c 1,21,-1
 360 73 l 257,22,23
 349 73 349 73 337 73 c 256,0,1
309 1 m 256,24,25
 308 1 l 256,26,27
 306 1 306 1 305 1 c 256,28,29
 304 1 304 1 301 1 c 0,30,31
 264 1 264 1 259 1 c 0,32,33
 162 2 162 2 111.5 16.5 c 128,-1,34
 61 31 61 31 69 52 c 0,35,36
 76 72 76 72 151 87 c 128,-1,37
 226 102 226 102 328 103 c 0,38,39
 334 103 334 103 342 104 c 0,40,41
 344 104 344 104 346 104 c 256,42,43
 347 104 l 256,44,45
 348 104 348 104 350 104 c 0,46,47
 457 104 457 104 526.5 89 c 128,-1,48
 596 74 596 74 589 52 c 0,49,-1
 589 52 l 258,50,51
 589 52 l 256,52,53
 589 51 589 51 588 51 c 258,54,-1
 566 -4 l 257,55,56
 536 -21 536 -21 466.5 -31 c 128,-1,57
 397 -41 397 -41 310 -41 c 0,58,59
 139 -41 139 -41 106 -39 c 1,60,-1
 118 -6 l 257,61,62
 129 -8 129 -8 207.5 -9.5 c 128,-1,63
 286 -11 286 -11 321 -11 c 0,64,65
 347 -11 347 -11 374.5 -9 c 128,-1,66
 402 -7 402 -7 418 -3 c 1,67,-1
 421 5 l 257,68,69
 369 0 369 0 312 1 c 0,70,71
 310 1 310 1 309 1 c 256,24,25
EndSplineSet
EndChar

StartChar: h
Encoding: 104 104 73
Width: 597
VWidth: 0
Flags: W
LayerCount: 2
Fore
SplineSet
106 154 m 257,0,-1
 275 154 l 257,1,-1
 256 102 l 257,2,3
 296 104 296 104 337 105 c 0,4,5
 424 105 424 105 487.5 94.5 c 128,-1,6
 551 84 551 84 569 67 c 1,7,-1
 547 1 l 257,8,-1
 380 1 l 257,9,-1
 404 67 l 257,10,11
 375 74 375 74 326 75 c 0,12,13
 278 75 278 75 244 68 c 1,14,-1
 219 1 l 257,15,-1
 50 1 l 257,16,-1
 106 154 l 257,0,-1
EndSplineSet
EndChar

StartChar: i
Encoding: 105 105 74
Width: 252
VWidth: 0
Flags: W
LayerCount: 2
Fore
SplineSet
87 102 m 257,0,-1
 239 102 l 257,1,-1
 202 -0 l 257,2,-1
 50 -0 l 257,3,-1
 87 102 l 257,0,-1
106 154 m 257,4,-1
 258 154 l 257,5,-1
 248 126 l 257,6,-1
 96 126 l 257,7,-1
 106 154 l 257,4,-1
EndSplineSet
EndChar

StartChar: j
Encoding: 106 106 75
Width: 419
VWidth: 0
Flags: W
LayerCount: 2
Fore
SplineSet
36 -39 m 257,0,-1
 48 -5 l 257,1,2
 77 -10 77 -10 117 -11 c 0,3,4
 166 -11 166 -11 201 -3 c 1,5,-1
 240 103 l 257,6,-1
 407 103 l 257,7,-1
 365 -3 l 257,8,9
 335 -20 335 -20 264 -30.5 c 128,-1,10
 193 -41 193 -41 106 -41 c 0,11,12
 69 -41 69 -41 36 -39 c 257,0,-1
270 154 m 257,13,-1
 422 154 l 257,14,-1
 412 126 l 257,15,-1
 260 126 l 257,16,-1
 270 154 l 257,13,-1
EndSplineSet
EndChar

StartChar: k
Encoding: 107 107 76
Width: 753
VWidth: 0
Flags: W
LayerCount: 2
Fore
SplineSet
117 155 m 257,0,-1
 258 155 l 257,1,-1
 225 63 l 257,2,-1
 486 106 l 257,3,-1
 678 105 l 257,4,-1
 400 57 l 257,5,-1
 649 -1 l 257,6,-1
 463 -0 l 257,7,-1
 275 45 l 257,8,-1
 213 31 l 257,9,-1
 202 -0 l 257,10,-1
 61 -0 l 257,11,-1
 117 155 l 257,0,-1
EndSplineSet
EndChar

StartChar: l
Encoding: 108 108 77
Width: 419
VWidth: 0
Flags: W
LayerCount: 2
Fore
SplineSet
369.436523438 1.2001953125 m 257,0,1
 334.78125 -0.599609375 334.78125 -0.599609375 297.78125 -0.599609375 c 0,2,3
 210.78125 -0.599609375 210.78125 -0.599609375 147.567382812 9.7998046875 c 128,-1,4
 84.3525390625 20.2001953125 84.3525390625 20.2001953125 66.39453125 36.7998046875 c 257,5,-1
 105.396484375 152.200195312 l 257,6,-1
 272.396484375 152.200195312 l 257,7,-1
 230.466796875 37 l 1,8,9
 259.7734375 29.599609375 259.7734375 29.599609375 308.7734375 29.599609375 c 0,10,11
 348.7734375 29.599609375 348.7734375 29.599609375 381.666015625 34.7998046875 c 257,12,-1
 369.436523438 1.2001953125 l 257,0,1
EndSplineSet
EndChar

StartChar: m
Encoding: 109 109 78
Width: 924
VWidth: 0
Flags: W
LayerCount: 2
Fore
SplineSet
88 104 m 257,0,-1
 257 104 l 257,1,-1
 256 102 l 257,2,3
 296 104 296 104 337 105 c 0,4,5
 424 105 424 105 487.5 94.5 c 128,-1,6
 551 84 551 84 569 67 c 1,7,-1
 547 1 l 257,8,-1
 380 1 l 257,9,-1
 404 67 l 257,10,11
 375 74 375 74 326 75 c 0,12,13
 278 75 278 75 244 68 c 1,14,-1
 219 1 l 257,15,-1
 50 1 l 257,16,-1
 88 104 l 257,0,-1
412 86 m 257,17,-1
 583 102 l 257,18,19
 623 104 623 104 664 105 c 0,20,21
 751 105 751 105 814.5 94.5 c 128,-1,22
 878 84 878 84 896 67 c 1,23,-1
 874 1 l 257,24,-1
 707 1 l 257,25,-1
 731 67 l 257,26,27
 702 74 702 74 653 75 c 0,28,29
 605 75 605 75 571 68 c 1,30,-1
 546 1 l 257,31,-1
 377 1 l 257,32,-1
 412 86 l 257,17,-1
EndSplineSet
EndChar

StartChar: n
Encoding: 110 110 79
Width: 597
VWidth: 0
Flags: W
LayerCount: 2
Fore
SplineSet
88 104 m 257,0,-1
 257 104 l 257,1,-1
 256 102 l 257,2,3
 296 104 296 104 337 105 c 0,4,5
 424 105 424 105 487.5 94.5 c 128,-1,6
 551 84 551 84 569 67 c 1,7,-1
 547 1 l 257,8,-1
 380 1 l 257,9,-1
 404 67 l 257,10,11
 375 74 375 74 326 75 c 0,12,13
 278 75 278 75 244 68 c 1,14,-1
 219 1 l 257,15,-1
 50 1 l 257,16,-1
 88 104 l 257,0,-1
EndSplineSet
EndChar

StartChar: o
Encoding: 111 111 80
Width: 616
VWidth: 0
Flags: W
LayerCount: 2
Fore
SplineSet
309 1 m 260,0,1
 308 1 l 256,2,3
 306 1 306 1 305 1 c 256,4,5
 297 1 297 1 290 1 c 0,6,7
 189 2 189 2 125.5 17 c 128,-1,8
 62 32 62 32 69 52 c 0,9,10
 76 72 76 72 151 87 c 128,-1,11
 226 102 226 102 328 103 c 0,12,13
 334 103 334 103 342 104 c 0,14,15
 344 104 344 104 346 104 c 256,16,17
 347 104 l 256,18,19
 348 104 348 104 350 104 c 0,20,21
 457 104 457 104 527 88.5 c 128,-1,22
 597 73 597 73 589 52 c 128,-1,23
 581 31 581 31 500 16 c 128,-1,24
 419 1 419 1 312 1 c 0,25,26
 310 1 310 1 309 1 c 260,0,1
337 73 m 260,27,28
 324 73 324 73 312 73 c 1,29,-1
 313 73 l 257,30,31
 275 72 275 72 249 66 c 128,-1,32
 223 60 223 60 220 52 c 0,33,34
 217 44 217 44 239 38.5 c 128,-1,35
 261 33 261 33 297 31 c 1,36,-1
 297 31 l 257,37,38
 308 30 308 30 321 31 c 0,39,40
 333 31 333 31 345 31 c 1,41,-1
 345 31 l 257,42,43
 383 32 383 32 409 38 c 128,-1,44
 435 44 435 44 438 52 c 0,45,46
 441 60 441 60 419 65.5 c 128,-1,47
 397 71 397 71 361 73 c 1,48,-1
 360 73 l 257,49,50
 349 73 349 73 337 73 c 260,27,28
EndSplineSet
EndChar

StartChar: p
Encoding: 112 112 81
Width: 512
VWidth: 0
Flags: W
LayerCount: 2
Fore
SplineSet
187 -40 m 257,0,-1
 35 -40 l 257,1,-1
 87 102 l 257,2,-1
 239 102 l 258,3,4
 247 102 247 102 263 102 c 0,5,6
 370 102 370 102 440 87 c 128,-1,7
 510 72 510 72 502.5 50.5 c 128,-1,8
 495 29 495 29 414 14 c 128,-1,9
 333 -1 333 -1 226 -1 c 0,10,11
 210 -1 210 -1 202 -1 c 1,12,-1
 187 -40 l 257,0,-1
228 71 m 257,13,-1
 213 30 l 257,14,15
 225 29 225 29 237 29 c 256,16,17
 282 29 282 29 315 35.5 c 128,-1,18
 348 42 348 42 351 51 c 0,19,20
 354 60 354 60 325.5 66 c 128,-1,21
 297 72 297 72 252 72 c 0,22,23
 240 72 240 72 228 71 c 257,13,-1
EndSplineSet
EndChar

StartChar: q
Encoding: 113 113 82
Width: 512
VWidth: 0
Flags: W
LayerCount: 2
Fore
SplineSet
317 -40 m 257,0,-1
 332 -1 l 257,1,2
 324 -1 324 -1 308 -1 c 0,3,4
 201 -1 201 -1 131 14 c 128,-1,5
 61 29 61 29 68.5 50.5 c 128,-1,6
 76 72 76 72 157 87 c 128,-1,7
 238 102 238 102 345 102 c 0,8,9
 361 102 361 102 369 102 c 2,10,-1
 521 102 l 257,11,-1
 469 -40 l 257,12,-1
 317 -40 l 257,0,-1
358 71 m 257,13,14
 346 72 346 72 334 72 c 256,15,16
 289 72 289 72 256 65.5 c 128,-1,17
 223 59 223 59 219 51 c 0,18,19
 216 42 216 42 245 35.5 c 128,-1,20
 274 29 274 29 319 29 c 0,21,22
 331 29 331 29 343 30 c 257,23,-1
 358 71 l 257,13,14
EndSplineSet
EndChar

StartChar: r
Encoding: 114 114 83
Width: 587
VWidth: 0
Flags: W
LayerCount: 2
Fore
SplineSet
88 104 m 257,0,-1
 257 104 l 257,1,-1
 256 102 l 257,2,3
 296 104 296 104 337 105 c 0,4,5
 417 105 417 105 478 94.5 c 128,-1,6
 539 84 539 84 562 69 c 1,7,-1
 397 69 l 257,8,-1
 397 69 l 257,9,10
 369 75 369 75 326 75 c 0,11,12
 278 75 278 75 244 68 c 1,13,-1
 219 1 l 257,14,-1
 50 1 l 257,15,-1
 88 104 l 257,0,-1
EndSplineSet
EndChar

StartChar: s
Encoding: 115 115 84
Width: 508
VWidth: 0
Flags: W
LayerCount: 2
Fore
SplineSet
72 9 m 257,0,-1
 147 32 l 257,1,2
 153 31 153 31 168 29 c 0,3,4
 207 26 207 26 239 27 c 128,-1,5
 271 28 271 28 292 32 c 0,6,7
 317 37 317 37 274 40 c 0,8,9
 262 41 262 41 220 42 c 257,10,11
 156 47 156 47 119 54 c 128,-1,12
 82 61 82 61 76.5 69.5 c 128,-1,13
 71 78 71 78 112 87 c 0,14,15
 163 98 163 98 264.5 100.5 c 128,-1,16
 366 103 366 103 458 95 c 0,17,18
 476 93 476 93 479 92 c 1,19,-1
 403 66 l 257,20,21
 390 68 390 68 382 69 c 0,22,23
 343 72 343 72 322 71 c 128,-1,24
 301 70 301 70 279 66 c 0,25,26
 253 61 253 61 257 59 c 128,-1,27
 261 57 261 57 307 55 c 1,28,29
 346 52 346 52 373.5 49 c 128,-1,30
 401 46 401 46 426 42 c 128,-1,31
 451 38 451 38 461 34 c 128,-1,32
 471 30 471 30 466.5 25 c 128,-1,33
 462 20 462 20 438 15 c 0,34,35
 387 4 387 4 286.5 1.5 c 128,-1,36
 186 -1 186 -1 93 7 c 0,37,38
 86 7 86 7 72 9 c 257,0,-1
EndSplineSet
EndChar

StartChar: t
Encoding: 116 116 85
Width: 514
VWidth: 0
Flags: W
LayerCount: 2
Fore
SplineSet
464 1 m 257,0,1
 429 -1 429 -1 393 -1 c 0,2,3
 306 -1 306 -1 242.5 9.5 c 128,-1,4
 179 20 179 20 161 37 c 1,5,-1
 174 73 l 257,6,-1
 76 73 l 257,7,-1
 88 103 l 257,8,-1
 184 103 l 257,9,-1
 200 152 l 257,10,-1
 367 152 l 257,11,-1
 350 103 l 257,12,-1
 447 103 l 257,13,-1
 435 73 l 257,14,-1
 338 73 l 257,15,-1
 325 37 l 257,16,17
 354 30 354 30 404 30 c 0,18,19
 444 30 444 30 477 35 c 1,20,-1
 464 1 l 257,0,1
EndSplineSet
EndChar

StartChar: u
Encoding: 117 117 86
Width: 598
VWidth: 0
Flags: W
LayerCount: 2
Fore
SplineSet
549 2 m 257,0,-1
 380 2 l 257,1,-1
 380 4 l 257,2,3
 340 2 340 2 299 1 c 0,4,5
 212 1 212 1 149 11.5 c 128,-1,6
 86 22 86 22 68 39 c 1,7,-1
 89 105 l 257,8,-1
 256 105 l 257,9,-1
 232 39 l 257,10,11
 261 32 261 32 310 31 c 0,12,13
 358 31 358 31 393 38 c 1,14,-1
 417 105 l 257,15,-1
 586 105 l 257,16,-1
 549 2 l 257,0,-1
EndSplineSet
EndChar

StartChar: v
Encoding: 118 118 87
Width: 652
VWidth: 0
Flags: W
LayerCount: 2
Fore
SplineSet
87 102 m 257,0,-1
 239 102 l 257,1,-1
 336 29 l 257,2,-1
 487 102 l 257,3,-1
 639 102 l 257,4,-1
 402 0 l 257,5,-1
 250 0 l 257,6,-1
 87 102 l 257,0,-1
EndSplineSet
EndChar

StartChar: w
Encoding: 119 119 88
Width: 1044
VWidth: 0
Flags: W
LayerCount: 2
Fore
SplineSet
483 102 m 257,0,-1
 635 102 l 257,1,-1
 728 29 l 257,2,-1
 879 102 l 257,3,-1
 1031 102 l 257,4,-1
 794 0 l 257,5,-1
 646 0 l 257,6,-1
 545 63 l 257,7,-1
 398 0 l 257,8,-1
 250 0 l 257,9,-1
 87 102 l 257,10,-1
 235 102 l 257,11,-1
 332 29 l 257,12,-1
 483 102 l 257,0,-1
EndSplineSet
EndChar

StartChar: x
Encoding: 120 120 89
Width: 724
VWidth: 0
Flags: W
LayerCount: 2
Fore
SplineSet
87 103 m 257,0,-1
 273 102 l 257,1,-1
 392 72 l 257,2,-1
 535 102 l 257,3,-1
 710 102 l 257,4,-1
 471 52 l 257,5,-1
 674 0 l 257,6,-1
 499 -0 l 257,7,-1
 374 31 l 257,8,-1
 229 0 l 257,9,-1
 51 -0 l 257,10,-1
 293 51 l 257,11,-1
 87 103 l 257,0,-1
EndSplineSet
EndChar

StartChar: y
Encoding: 121 121 90
Width: 652
VWidth: 0
Flags: W
LayerCount: 2
Fore
SplineSet
87 102 m 257,0,-1
 258 102 l 257,1,-1
 355 29 l 257,2,-1
 487 102 l 257,3,-1
 672 103 l 257,4,-1
 341 -40 l 257,5,-1
 193 -41 l 257,6,-1
 277 0 l 257,7,-1
 87 102 l 257,0,-1
EndSplineSet
EndChar

StartChar: z
Encoding: 122 122 91
Width: 512
VWidth: 0
Flags: W
LayerCount: 2
Fore
SplineSet
51 2 m 257,0,-1
 62 32 l 257,1,-1
 320 73 l 257,2,-1
 77 73 l 257,3,-1
 88 104 l 257,4,-1
 541 104 l 257,5,-1
 530 73 l 257,6,-1
 313 32 l 257,7,-1
 515 32 l 257,8,-1
 504 2 l 257,9,-1
 51 2 l 257,0,-1
EndSplineSet
EndChar

StartChar: braceleft
Encoding: 123 123 92
Width: 419
VWidth: 0
Flags: W
LayerCount: 2
Fore
SplineSet
445 -17 m 1,0,1
 429 -18 429 -18 407 -18 c 0,2,3
 363 -18 363 -18 331.5 -10 c 128,-1,4
 300 -2 300 -2 293 12 c 1,5,-1
 305 46 l 1,6,-1
 205 72 l 1,7,-1
 323 97 l 1,8,-1
 337 131 l 1,9,10
 354 144 354 144 391.5 152.5 c 128,-1,11
 429 161 429 161 473 161 c 0,12,13
 495 161 495 161 509 160 c 1,14,-1
 499 133 l 1,15,16
 485 137 485 137 464 137 c 0,17,18
 440 137 440 137 421 131 c 1,19,-1
 408 94 l 1,20,-1
 319 74 l 1,21,-1
 390 46 l 1,22,-1
 377 12 l 1,23,24
 391 6 391 6 416 6 c 0,25,26
 437 6 437 6 455 10 c 1,27,-1
 445 -17 l 1,0,1
EndSplineSet
EndChar

StartChar: bar
Encoding: 124 124 93
Width: 252
VWidth: 0
Flags: W
LayerCount: 2
Fore
SplineSet
128 174 m 257,0,-1
 250 174 l 257,1,-1
 180 -20 l 257,2,-1
 58 -20 l 257,3,-1
 128 174 l 257,0,-1
EndSplineSet
EndChar

StartChar: braceright
Encoding: 125 125 94
Width: 419
VWidth: 0
Flags: W
LayerCount: 2
Fore
SplineSet
173 -17 m 1,0,-1
 183 10 l 1,1,2
 197 6 197 6 218 6 c 0,3,4
 243 6 243 6 261 12 c 1,5,-1
 274 46 l 1,6,-1
 365 74 l 1,7,-1
 290 94 l 1,8,-1
 305 131 l 1,9,10
 290 137 290 137 266 137 c 0,11,12
 245 137 245 137 227 133 c 1,13,-1
 237 160 l 1,14,15
 253 161 253 161 275 161 c 0,16,17
 319 161 319 161 350 152.5 c 128,-1,18
 381 144 381 144 389 131 c 1,19,-1
 377 97 l 1,20,-1
 477 72 l 1,21,-1
 359 46 l 1,22,-1
 345 12 l 1,23,24
 328 -1 328 -1 290.5 -9.5 c 128,-1,25
 253 -18 253 -18 209 -18 c 0,26,27
 187 -18 187 -18 173 -17 c 1,0,-1
EndSplineSet
EndChar

StartChar: asciitilde
Encoding: 126 126 95
Width: 644
VWidth: 0
Flags: W
LayerCount: 2
Fore
SplineSet
591 115 m 257,0,-1
 580 85 l 258,1,2
 579 84 579 84 562 80.5 c 128,-1,3
 545 77 545 77 511.5 73 c 128,-1,4
 478 69 478 69 446 69 c 2,5,-1
 346 69 l 2,6,7
 314 69 314 69 271.5 74.5 c 128,-1,8
 229 80 229 80 197 80 c 0,9,10
 174 80 174 80 143.5 77 c 128,-1,11
 113 74 113 74 94 72 c 2,12,-1
 75 69 l 1,13,-1
 86 99 l 257,14,15
 154 110 154 110 204 110 c 0,16,17
 237 110 237 110 282 104.5 c 128,-1,18
 327 99 327 99 360 99 c 0,19,20
 405 99 405 99 449 99 c 0,21,22
 480 99 480 99 515.5 103 c 128,-1,23
 551 107 551 107 571 111 c 2,24,-1
 591 115 l 257,0,-1
EndSplineSet
EndChar
